HIERARCHY
ROOT Hips
{
	OFFSET -3.958830 18.904000 13.208200
	CHANNELS 6 Xposition Yposition Zposition Zrotation Yrotation Xrotation 
	JOINT LHipJoint
	{
		OFFSET 0.000000 0.000000 0.000000
		CHANNELS 3 Zrotation Yrotation Xrotation
		JOINT LeftUpLeg
		{
			OFFSET 1.800000 -1.400000 0.085000
			CHANNELS 3 Zrotation Yrotation Xrotation
			JOINT LeftLeg
			{
				OFFSET 2.215000 -6.000000 0.000000
				CHANNELS 3 Zrotation Yrotation Xrotation
				JOINT LeftFoot
				{
					OFFSET 2.500000 -6.900000 0.000000
					CHANNELS 3 Zrotation Yrotation Xrotation
					JOINT LeftToeBase
					{
						OFFSET 0.200000 -0.500000 1.950000
						CHANNELS 3 Zrotation Yrotation Xrotation
						End Site
						{
							OFFSET 0.000000 0.000000 0.000000
						}
					}
				}
			}
		}
	}
	JOINT RHipJoint
	{
		OFFSET 0.000000 0.000000 0.000000
		CHANNELS 3 Zrotation Yrotation Xrotation
		JOINT RightUpLeg
		{
			OFFSET -1.800000 -1.400000 0.085000
			CHANNELS 3 Zrotation Yrotation Xrotation
			JOINT RightLeg
			{
				OFFSET -2.215000 -6.000000 0.000000
				CHANNELS 3 Zrotation Yrotation Xrotation
				JOINT RightFoot
				{
					OFFSET -2.500000 -6.900000 0.000000
					CHANNELS 3 Zrotation Yrotation Xrotation
					JOINT RightToeBase
					{
						OFFSET -0.200000 -0.500000 1.950000
						CHANNELS 3 Zrotation Yrotation Xrotation
						End Site
						{
							OFFSET 0.000000 0.000000 0.000000
						}
					}
				}
			}
		}
	}
	JOINT LowerBack
	{
		OFFSET 0.000000 0.000000 0.000000
		CHANNELS 3 Zrotation Yrotation Xrotation
		JOINT Spine
		{
			OFFSET -0.087000 1.940000 -0.288900
			CHANNELS 3 Zrotation Yrotation Xrotation
			JOINT Spine1
			{
				OFFSET 0.000000 1.950000 0.060000
				CHANNELS 3 Zrotation Yrotation Xrotation
				JOINT Neck
				{
					OFFSET 0.000000 0.000000 0.000000
					CHANNELS 3 Zrotation Yrotation Xrotation
					JOINT Neck1
					{
						OFFSET 0.000000 1.600000 0.340000
						CHANNELS 3 Zrotation Yrotation Xrotation
						JOINT Head
						{
							OFFSET 0.000000 1.667000 -0.240000
							CHANNELS 3 Zrotation Yrotation Xrotation
							End Site
							{
								OFFSET 0.000000 0.000000 0.000000
							}
						}
					}
				}
				JOINT LeftShoulder
				{
					OFFSET 0.000000 0.000000 0.000000
					CHANNELS 3 Zrotation Yrotation Xrotation
					JOINT LeftArm
					{
						OFFSET 2.700000 1.550000 -0.730000
						CHANNELS 3 Zrotation Yrotation Xrotation
						JOINT LeftForeArm
						{
							OFFSET 5.450000 0.000000 0.000000
							CHANNELS 3 Zrotation Yrotation Xrotation
							JOINT LeftHand
							{
								OFFSET 3.450000 0.000000 0.000000
								CHANNELS 3 Zrotation Yrotation Xrotation
								JOINT LeftHandIndex1
								{
									OFFSET 0.750000 0.000000 0.000000
									CHANNELS 3 Zrotation Yrotation Xrotation
									End Site
									{
										OFFSET 0.000000 0.000000 0.000000
									}
								}
							}
						}
					}
				}
				JOINT RightShoulder
				{
					OFFSET 0.000000 0.000000 0.000000
					CHANNELS 3 Zrotation Yrotation Xrotation
					JOINT RightArm
					{
						OFFSET -2.700000 1.550000 -0.730000
						CHANNELS 3 Zrotation Yrotation Xrotation
						JOINT RightForeArm
						{
							OFFSET -5.450000 0.000000 0.000000
							CHANNELS 3 Zrotation Yrotation Xrotation
							JOINT RightHand
							{
								OFFSET -3.450000 0.000000 0.000000
								CHANNELS 3 Zrotation Yrotation Xrotation
								JOINT RightHandIndex1
								{
									OFFSET -0.750000 0.000000 0.000000
									CHANNELS 3 Zrotation Yrotation Xrotation
									End Site
									{
										OFFSET 0.000000 0.000000 0.000000
									}
								}
							}
						}
					}
				}
			}
		}
	}
}
MOTION
Frames: 12
Frame Time: 0.016667
-0.526020 17.443890 -4.721010 -0.415777 3.819411 1.806642 -15.247911 11.936618 5.035428 -5.309352 -9.326469 -41.080191 -2.982867 4.513552 23.159217 -1.111423 3.546714 3.415852 0.557940 0.030670 0.459660 18.268594 -10.830857 2.504954 -3.460606 -0.738222 6.415628 7.841790 -9.711073 27.350199 -0.968197 -6.311961 2.547746 0.100720 0.299270 0.157390 -3.546591 -1.202943 -8.391989 8.079775 3.007376 20.470266 -4.224999 5.663484 5.570559 2.473313 -0.992072 -8.921748 -5.261831 -0.029795 43.087619 -2.477810 -1.982830 -14.014020 -26.945760 -10.021894 3.248604 -28.449378 3.481776 -5.822480 -46.824420 -33.444923 9.974590 -3.540552 3.017682 0.929020 0.076630 -0.053460 0.265930 21.580566 13.161826 5.770509 29.832022 6.805109 -5.501662 73.102985 57.326465 33.618463 1.970228 -1.580099 -0.427460 0.442870 0.003490 -0.377420 
-0.534800 17.391380 -4.748740 0.010378 4.259375 2.101251 -15.279067 11.913881 5.032831 -6.594825 -9.294574 -41.014043 -2.290889 3.912594 20.007842 -1.238944 3.083781 3.611212 0.522940 -0.022020 0.457160 18.241973 -10.809065 2.517757 -3.620055 -0.700972 6.748653 8.290709 -9.790933 26.799053 -0.957382 -6.320151 2.537464 0.096850 0.328770 0.152270 -3.468390 -1.210006 -8.390116 7.286416 3.385448 20.515964 -3.925001 5.921940 5.469630 2.540111 -0.721701 -8.698044 -4.603942 -0.469524 42.578632 -2.902650 -2.069410 -14.470180 -27.077630 -10.043962 3.172433 -28.098488 3.186273 -5.560393 -46.692072 -33.413048 9.964336 -3.583202 2.965793 0.951950 0.093200 -0.071600 0.244160 21.633327 13.225013 5.454058 29.300595 7.984355 -5.305772 68.904660 57.325521 31.591010 1.926137 -1.538055 -0.474510 0.481670 0.043190 -0.398750 
-0.545390 17.308750 -4.792350 0.075968 4.542688 1.831249 -15.288242 11.974610 4.959001 -7.963144 -8.772968 -40.396498 -1.286276 3.189014 15.211662 -1.459668 2.592659 3.830797 0.436960 -0.176610 0.458540 18.218717 -10.790300 2.609014 -3.138542 -0.702143 7.830073 8.360352 -9.733852 26.230148 -0.948427 -6.330057 2.516302 0.061800 0.379120 0.142220 -3.426773 -1.270839 -8.433418 7.287447 3.691702 21.808282 -3.890348 6.455069 4.726713 2.691857 -0.891187 -8.554289 -4.815396 -0.463774 42.839265 -3.380220 -2.158670 -15.576330 -27.865950 -10.194237 3.068783 -27.306343 3.215155 -5.230384 -45.823799 -33.312353 9.634653 -3.652407 2.843665 1.041940 0.105400 -0.105410 0.181860 22.081483 13.938362 5.173931 27.819723 9.662583 -5.384677 60.780115 56.644112 27.500111 1.831573 -1.425252 -0.586430 0.559280 0.146550 -0.461930 
-0.555550 17.206650 -4.832530 0.056693 4.787566 1.837883 -15.312055 11.997867 4.945509 -9.431594 -8.393074 -40.323262 -0.221567 2.627791 10.702843 -1.591239 2.213286 4.004473 0.386730 -0.267480 0.445760 18.191002 -10.738227 2.682148 -2.521302 -0.665130 8.641771 8.331411 -9.582955 25.681283 -0.941242 -6.313154 2.529324 0.035660 0.415320 0.131380 -3.357661 -1.343053 -8.508626 7.291398 4.080487 22.880576 -3.537554 7.048264 3.796685 2.829818 -1.370420 -8.632379 -5.582861 -0.189550 43.298047 -3.345130 -2.331450 -16.148110 -28.399830 -10.382549 3.283685 -27.608206 3.669687 -5.213763 -44.120016 -33.625767 9.153387 -3.681958 2.765144 1.098070 0.110600 -0.128700 0.156680 22.345887 15.186198 4.893770 25.979122 11.719119 -5.448200 49.842178 54.085031 21.581716 1.735430 -1.332116 -0.651490 0.607890 0.203850 -0.492510 
-0.563480 17.111580 -4.864810 -0.347199 5.100689 1.348083 -15.310127 12.044887 4.898473 -10.050550 -7.852025 -40.335711 0.105523 2.435747 8.026516 -1.672368 2.082966 4.057482 0.344490 -0.332490 0.435360 18.181904 -10.687605 2.805912 -1.536884 -0.785545 9.849883 8.305205 -9.408045 24.907125 -0.952145 -6.293304 2.526972 0.017610 0.422450 0.113090 -3.355493 -1.408704 -8.598346 8.265398 4.358101 24.443400 -3.512259 7.846292 2.791836 2.992346 -1.837464 -8.737424 -6.565825 -0.122642 44.550040 -3.039140 -2.860010 -17.062950 -29.580252 -10.806559 3.317884 -27.843837 3.444517 -5.074059 -41.134701 -32.995377 8.038263 -3.688745 2.684443 1.151210 0.092890 -0.134910 0.121330 23.098475 16.591698 4.826301 24.150861 13.217424 -5.758310 38.724055 50.386647 15.746592 1.669949 -1.208902 -0.699810 0.646150 0.256050 -0.517030 
-0.566650 17.027620 -4.884770 -0.873196 5.049349 0.538791 -15.287909 12.105565 4.841846 -10.317243 -7.245070 -40.547636 0.421435 2.399664 7.360623 -1.679061 2.032205 4.075501 0.333800 -0.352320 0.440550 18.177793 -10.691873 2.948319 -0.690631 -0.893664 11.257887 7.993015 -9.188498 24.227808 -0.992058 -6.277308 2.540831 -0.005310 0.405670 0.100840 -3.389668 -1.376189 -8.692336 9.674412 4.824942 26.153500 -3.996290 9.070517 1.744339 3.349296 -1.876497 -9.411293 -6.918160 -0.221749 47.500456 -2.695960 -3.335030 -17.512310 -30.842819 -11.724650 3.575914 -28.255537 3.458286 -5.145054 -37.586419 -32.242672 6.774240 -3.651813 2.613825 1.196630 0.060740 -0.108390 0.113420 23.543959 18.330201 5.337670 23.427565 14.063008 -6.137654 27.804808 45.188415 10.243129 1.630673 -1.074386 -0.707920 0.667660 0.263700 -0.523880 
-0.561140 16.941860 -4.876850 -1.712206 4.885388 0.020876 -15.247578 12.129002 4.794587 -10.395208 -6.699735 -41.504960 0.838814 2.459998 8.496937 -1.614853 1.990770 4.054986 0.370950 -0.285270 0.423290 18.198367 -10.704459 3.097047 0.388907 -1.142820 12.583029 7.451188 -8.884228 23.505911 -1.041193 -6.258467 2.550767 -0.000950 0.363340 0.101620 -3.483249 -1.275377 -8.758519 11.557604 5.194740 27.144017 -4.409926 10.240736 0.981963 3.509678 -2.364715 -10.100699 -8.053109 0.059850 49.979945 -1.192980 -4.136350 -17.731440 -31.805476 -12.128119 3.696988 -29.213011 3.527846 -5.270615 -34.747185 -31.411851 5.750029 -3.587167 2.632223 1.190400 0.018000 -0.072340 0.131050 24.075313 19.785511 5.928936 23.021231 14.930390 -5.923999 18.431405 38.601306 6.029584 1.631936 -0.989513 -0.648720 0.637780 0.236440 -0.493400 
-0.549710 16.886040 -4.851630 -2.349539 4.652896 -0.748961 -15.235692 12.245110 4.733953 -10.618334 -6.117011 -42.151226 1.489259 2.514379 10.152936 -1.569081 2.002559 4.009475 0.402690 -0.238630 0.421360 18.179435 -10.678129 3.242842 1.151965 -1.284971 14.066158 7.174705 -8.730056 22.921375 -1.103894 -6.259187 2.544566 -0.005790 0.310760 0.100830 -3.482040 -1.378890 -8.822376 13.175645 5.747159 28.826122 -4.909843 11.856860 -0.262511 3.690582 -2.720463 -11.124066 -9.363097 0.351037 53.322877 0.770690 -5.148600 -18.787980 -33.129323 -12.618659 3.670905 -30.242956 3.548775 -5.365897 -31.115295 -30.079177 4.461886 -3.513890 2.611061 1.223850 -0.042710 -0.021820 0.133760 25.007179 21.219438 6.942212 22.512010 14.990965 -5.609163 10.585810 31.473923 3.152523 1.658979 -0.878170 -0.605790 0.620300 0.221250 -0.478950 
-0.525800 16.838010 -4.803870 -2.609285 5.262536 -1.068394 -15.257400 12.287084 4.767930 -11.519866 -6.136197 -42.908387 2.451416 2.471081 11.778828 -1.556898 2.034973 3.974668 0.401670 -0.237210 0.414910 18.149094 -10.604257 3.330181 1.696470 -1.427212 15.130962 7.200987 -8.708928 22.456941 -1.130051 -6.272946 2.538909 -0.011760 0.282610 0.079340 -3.431016 -1.522960 -8.895533 14.133549 6.143632 29.837770 -5.160125 13.034655 -1.511408 3.848929 -2.847130 -11.836221 -10.060382 0.234119 55.474224 1.671630 -6.064180 -18.929740 -34.608475 -12.579374 3.417763 -31.184683 4.004561 -5.571325 -28.418138 -29.313416 3.615997 -3.470096 2.578311 1.245920 -0.076510 -0.009790 0.123150 26.221187 21.731105 7.783329 22.428652 14.507708 -5.107209 4.584333 24.651427 1.396033 1.713787 -0.781390 -0.603500 0.621660 0.225870 -0.482030 
-0.488480 16.802360 -4.735960 -2.674391 6.013764 -0.960610 -15.272998 12.249455 4.852035 -12.743800 -6.476934 -43.661815 3.663375 2.331353 13.297728 -1.528977 2.065641 3.957028 0.387820 -0.239600 0.396120 18.137150 -10.550606 3.363358 1.673567 -1.441815 15.808613 7.683609 -8.821703 21.835584 -1.144417 -6.281014 2.546398 -0.025680 0.283950 0.059840 -3.416780 -1.562228 -8.963158 14.930640 6.469930 30.100961 -5.339662 13.846116 -2.365652 3.914848 -2.987626 -12.342876 -10.622880 0.083834 56.863137 2.771570 -6.982780 -19.229460 -35.328665 -12.162499 3.147247 -32.800441 4.497598 -5.816356 -26.214721 -28.182644 2.813428 -3.455492 2.518378 1.252970 -0.094840 -0.002650 0.119820 26.856513 21.715013 8.388828 23.044130 13.868775 -4.689968 0.041445 19.238703 0.422343 1.789034 -0.703451 -0.600200 0.642220 0.233080 -0.468530 
-0.455300 16.794240 -4.663950 -2.994138 7.153060 -0.749087 -15.279274 12.188910 4.944860 -13.669536 -6.869846 -44.484893 4.805372 2.165942 14.801813 -1.509304 2.141206 3.917363 0.370230 -0.259910 0.374330 18.143595 -10.483895 3.404407 2.230173 -1.631539 16.095615 7.880348 -8.836295 21.374463 -1.140828 -6.269220 2.558104 -0.041950 0.286270 0.053820 -3.446806 -1.586564 -9.034229 16.077277 6.454908 30.128795 -5.685292 14.342842 -3.209386 3.976364 -2.975106 -12.725556 -10.780314 -0.067753 57.950524 3.335780 -7.676140 -18.589940 -36.025229 -11.759775 2.945666 -33.867439 5.322648 -6.057937 -24.824179 -27.450580 2.318149 -3.450978 2.497850 1.253270 -0.096690 -0.011330 0.112230 27.424480 21.428409 8.815011 23.879872 12.833801 -4.557308 -3.600805 15.259919 -0.109415 1.851816 -0.681965 -0.598560 0.637200 0.247620 -0.465280 
-0.412760 16.808610 -4.596060 -3.401711 8.742451 -0.488529 -15.264762 12.089098 5.056175 -14.749900 -7.427448 -44.978755 6.137605 1.872128 15.933195 -1.478294 2.172684 3.899434 0.353120 -0.262620 0.343640 18.180973 -10.425373 3.415304 2.738293 -1.640002 15.829124 8.580616 -9.024049 21.615372 -1.147975 -6.289475 2.554539 -0.051340 0.282660 0.039490 -3.559972 -1.548584 -9.091584 17.693939 5.889198 30.269016 -6.601344 14.377210 -4.097390 4.053894 -3.108886 -12.932089 -11.184157 -0.184723 58.294376 3.953040 -8.289800 -18.531480 -36.325250 -11.223164 2.780490 -34.949162 6.288753 -6.452229 -23.454305 -26.917699 1.886188 -3.431221 2.482907 1.248200 -0.108550 -0.010680 0.112390 27.463323 20.954604 8.979597 24.957248 11.613436 -4.450584 -5.361525 12.853130 -0.249137 1.904433 -0.671141 -0.593300 0.636650 0.253000 -0.452070 
